<?xml version="1.0" standalone="no"?>
<!DOCTYPE svg PUBLIC "-//W3C//DTD SVG 20010904//EN"
 "http://www.w3.org/TR/2001/REC-SVG-20010904/DTD/svg10.dtd">
<svg version="1.0" xmlns="http://www.w3.org/2000/svg"
 width="225.000000pt" height="225.000000pt" viewBox="0 0 225.000000 225.000000"
 preserveAspectRatio="xMidYMid meet">
<metadata>
Created by potrace 1.14, written by Peter Selinger 2001-2017
</metadata>
<g transform="translate(0.000000,225.000000) scale(0.100000,-0.100000)"
fill="#000000" stroke="none">
<path d="M359 2227 c-74 -49 -69 25 -69 -1102 0 -1127 -5 -1053 69 -1102 l34
-23 732 0 732 0 34 23 c73 48 69 -7 69 947 l-1 855 -196 213 -197 212 -587 0
-586 0 -34 -23z m1121 -274 c0 -150 2 -179 17 -195 14 -16 34 -18 180 -18
l163 0 -2 -807 -3 -808 -710 0 -710 0 -3 990 c-1 545 0 996 3 1003 3 9 120 12
535 12 l530 0 0 -177z m205 -8 l77 -85 -81 0 -81 0 0 85 c0 47 2 85 4 85 2 0
38 -38 81 -85z"/>
<path d="M592 1624 c-24 -17 -29 -43 -10 -62 9 -9 139 -12 524 -12 441 0 513
2 524 15 17 21 4 61 -22 69 -13 3 -241 6 -508 6 -423 0 -488 -2 -508 -16z"/>
<path d="M580 1325 c-17 -21 -4 -61 22 -69 30 -8 976 -8 1006 0 26 8 39 48 22
69 -19 23 -1031 23 -1050 0z"/>
<path d="M582 1048 c-17 -17 -15 -44 4 -62 14 -14 74 -16 515 -16 326 0 507 4
520 10 21 12 25 50 7 68 -17 17 -1029 17 -1046 0z"/>
<path d="M582 758 c-19 -19 -14 -45 10 -62 20 -14 85 -16 508 -16 267 0 495 3
508 6 26 8 39 48 22 69 -11 13 -83 15 -524 15 -385 0 -515 -3 -524 -12z"/>
</g>
</svg>
